<svg width="61" height="60" viewBox="0 0 61 60" fill="none" xmlns="http://www.w3.org/2000/svg">
<g clip-path="url(#clip0_7505_5084)">
<path d="M8.72926 23.9586C10.0158 23.9586 11.2782 23.5945 12.3705 22.8986L25.5196 14.5561L7.05428 1.09955C4.32738 -0.891007 0.5 1.05909 0.5 4.42524V18.5534L3.93088 21.9681C5.21746 23.2465 6.91672 23.9505 8.73736 23.9505L8.72926 23.9586Z" fill="#FF5A00"/>
<path d="M1.94032 37.2793L20.8345 53.5032L27.2431 59.0055C28.7401 60.2921 30.9329 60.3326 32.4784 59.1107L59.3914 37.8862C60.3786 37.1013 60.9612 35.9118 60.9612 34.6495V4.12756C60.9612 0.818057 57.2471 -1.14823 54.5121 0.720957L29.7353 17.6326L14.968 27.0028C13.0502 28.2247 10.8817 28.8154 8.72927 28.8154C5.72724 28.8154 2.74949 27.6582 0.5 25.4168V34.1559C0.5 35.3616 1.02596 36.5025 1.94032 37.2793Z" fill="#FF5A00"/>
</g>
<defs>
<clipPath id="clip0_7505_5084">
<rect width="60.4612" height="60" fill="none" transform="translate(0.5)"/>
</clipPath>
</defs>
</svg>
